<svg height='300px' width='300px'  fill="#000000" xmlns="http://www.w3.org/2000/svg" xmlns:xlink="http://www.w3.org/1999/xlink" version="1.1" x="0px" y="0px" viewBox="0 0 100 100" enable-background="new 0 0 100 100" xml:space="preserve"><g><path fill="none" d="M83.412,53.562l0.87-1.811c-1.18,1.144-2.594,1.811-4.115,1.811c-1.558,0-3.003-0.699-4.198-1.894l1.248,2.783   c-0.291-0.478-1.416-0.721-2.745-0.836c0.514,0.946,1.785,1.715,3.431,2.088l2.265,3.681l2.265-3.681   c2-0.453,3.449-1.487,3.654-2.719C84.8,52.952,83.704,53.082,83.412,53.562z"></path><path fill="none" d="M20.238,51.115c3.406,0,6.219-3.698,6.66-8.496c-0.299,0.075-0.667,0.221-1.068,0.5   c0,0,0.761-4.514-0.845-5.147c0,0-2.215,1.076-4.747,1.145c-2.533-0.069-4.747-1.145-4.747-1.145   c-1.606,0.633-0.845,5.148-0.845,5.148c-0.401-0.28-0.769-0.426-1.068-0.501C14.02,47.417,16.833,51.115,20.238,51.115z"></path><path fill="none" d="M86.296,42.893l-2.214-0.282c1.216-0.701,0.573-2.235,0.273-2.749c-0.089-0.152-0.151-0.241-0.151-0.241   c-0.017,0.013-0.034,0.025-0.051,0.037c-3.458,2.49-6.29,3.436-6.29,3.436c-1.563,0.617-4.179,1.05-4.179,1.05   c0.429,4.669,3.168,8.27,6.482,8.27c2.175,0,4.101-1.549,5.29-3.933c0.653-1.311,1.085-2.872,1.212-4.568   c0.045-0.309,0.069-0.625,0.073-0.945l-0.405-0.075H86.296z"></path><path fill="none" d="M50.203,51.436c4.378,0,7.995-4.756,8.563-10.924c-0.385,0.097-0.857,0.283-1.373,0.643   c0,0,0.979-5.804-1.086-6.618c0,0-2.848,1.383-6.104,1.471c-3.256-0.088-6.104-1.471-6.104-1.471   c-2.064,0.814-1.086,6.618-1.086,6.618c-0.516-0.36-0.988-0.546-1.373-0.643C42.208,46.679,45.824,51.436,50.203,51.436z"></path><path d="M32.863,54.688c-1.646-1.811-3.94-3.021-6.519-3.255c-0.041,1.833-2.758,3.313-6.106,3.313   c-3.348,0-6.065-1.48-6.105-3.313C9.012,51.899,5,56.205,5,61.448c0,5.555,4.503,5.542,10.059,5.542h10.359   c1.311,0,2.562,0,3.711-0.072c-0.144-0.705-0.219-1.465-0.219-2.288C28.91,60.828,30.404,57.312,32.863,54.688z"></path><path d="M12.629,42.34c0.006,0.073,0.011,0.145,0.018,0.217c0.485,5.492,3.699,9.735,7.591,9.735s7.105-4.243,7.591-9.735   c0.006-0.072,0.012-0.144,0.018-0.217c0.035-0.238,0.058-0.479,0.072-0.724c0.01-0.167,0.016-0.335,0.016-0.505   c0-0.417-0.03-0.828-0.088-1.229c-0.563-3.892-3.755-6.873-7.609-6.873s-7.046,2.981-7.609,6.873   c-0.058,0.401-0.088,0.812-0.088,1.229c0,0.17,0.006,0.338,0.016,0.505C12.572,41.861,12.594,42.102,12.629,42.34z M15.491,37.972   c0,0,2.214,1.076,4.747,1.145c2.532-0.069,4.747-1.145,4.747-1.145c1.606,0.633,0.845,5.147,0.845,5.147   c0.401-0.279,0.769-0.425,1.068-0.5c-0.441,4.798-3.254,8.496-6.66,8.496s-6.218-3.698-6.66-8.496   c0.299,0.075,0.667,0.221,1.068,0.501C14.646,43.12,13.885,38.605,15.491,37.972z"></path><path d="M88.154,53.136c1.68,0.188,3.153,0.479,3.153,0.479c-3.352-1.844-3.265-8.458-3.265-8.458   c0.586-12.812-7.87-12.142-7.87-12.142l-0.006,0.02l-0.006-0.02c0,0-8.455-0.669-7.869,12.142c0,0,0.087,6.614-3.266,8.458   c0,0,0.902-0.061,2.109-0.085c-1.079,0.483-2.054,1.154-2.884,1.973c2.033,2.517,3.244,5.706,3.244,9.128   c0,0.851-0.082,1.635-0.234,2.36c1.186-0.004,2.492-0.065,3.863-0.065h10.084c5.408,0,9.791,0.955,9.791-4.451   C95,58.093,92.121,54.387,88.154,53.136z M82.432,55.703l-2.265,3.681l-2.265-3.681c-1.646-0.373-2.917-1.142-3.431-2.088   c1.329,0.115,2.454,0.358,2.745,0.836l-1.248-2.783c1.195,1.194,2.641,1.894,4.198,1.894c1.521,0,2.936-0.667,4.115-1.811   l-0.87,1.811c0.292-0.479,1.388-0.609,2.674-0.577C85.881,54.216,84.432,55.25,82.432,55.703z M86.669,43.913   c-0.127,1.696-0.559,3.258-1.212,4.568c-1.189,2.384-3.115,3.933-5.29,3.933c-3.314,0-6.054-3.6-6.482-8.27   c0,0,2.616-0.433,4.179-1.05c0,0,2.832-0.946,6.29-3.436c0.017-0.012,0.034-0.024,0.051-0.037c0,0,0.063,0.089,0.151,0.241   c0.3,0.514,0.942,2.047-0.273,2.749l2.214,0.282h0.041l0.405,0.075C86.738,43.288,86.714,43.604,86.669,43.913z"></path><path d="M40.42,40.152c0.007,0.093,0.015,0.186,0.024,0.279c0.624,7.061,4.755,12.516,9.759,12.516s9.135-5.455,9.759-12.516   c0.009-0.093,0.017-0.186,0.023-0.279c0.045-0.307,0.074-0.616,0.093-0.931c0.012-0.215,0.021-0.431,0.021-0.649   c0-0.537-0.039-1.065-0.113-1.581c-0.724-5.003-4.827-8.836-9.783-8.836c-4.955,0-9.059,3.833-9.783,8.836   c-0.074,0.516-0.113,1.044-0.113,1.581c0,0.218,0.009,0.435,0.021,0.649C40.346,39.536,40.375,39.846,40.42,40.152z M44.099,34.536   c0,0,2.848,1.383,6.104,1.471c3.256-0.088,6.104-1.471,6.104-1.471c2.064,0.814,1.086,6.618,1.086,6.618   c0.516-0.359,0.988-0.546,1.373-0.643c-0.568,6.168-4.185,10.924-8.563,10.924s-7.995-4.756-8.563-10.924   c0.385,0.097,0.857,0.283,1.373,0.643C43.013,41.154,42.035,35.35,44.099,34.536z"></path><path d="M58.77,51.664c-0.022-0.003-0.046-0.004-0.068-0.009c-0.183-0.023-0.365-0.046-0.55-0.063   c-0.001,0.019-0.006,0.038-0.007,0.056c-0.003,0.055-0.013,0.107-0.018,0.162c-0.035,0.307-0.127,0.604-0.27,0.891   c-0.962,2.421-4.074,7.012-5.908,9.617l-0.377-5.413c0.534-0.275,0.995-0.729,1.29-1.257c0.213-0.379,0.343-0.792,0.343-1.214   c0,0-1.367,0.605-2.763,0.605c-0.08,0-0.16-0.002-0.239-0.006c-0.08,0.004-0.159,0.006-0.239,0.006   c-1.396,0-2.763-0.605-2.763-0.605c0,0.422,0.13,0.835,0.342,1.214c0.295,0.527,0.755,0.981,1.291,1.257l-0.377,5.413   c-1.833-2.605-4.946-7.196-5.908-9.617c-0.143-0.287-0.234-0.584-0.269-0.891c-0.006-0.055-0.016-0.107-0.019-0.162   c0-0.018-0.006-0.037-0.006-0.056c-0.185,0.017-0.368,0.039-0.551,0.063c-0.022,0.005-0.046,0.006-0.068,0.009   c-6.368,0.886-11.27,6.354-11.27,12.966c0,7.197,5.808,7.215,12.992,7.215c0.034,0,0.067,0,0.102,0h6.743h6.743   c0.034,0,0.068,0,0.103,0c7.185,0,12.992-0.017,12.992-7.215C70.04,58.018,65.138,52.55,58.77,51.664z"></path></g></svg>